<?xml version="1.0" encoding="UTF-8"?>
<svg xmlns="http://www.w3.org/2000/svg" xmlns:xlink="http://www.w3.org/1999/xlink" width="256px" height="256px" viewBox="0 0 256 256" version="1.1">
<g id="surface1">
<path style=" stroke:none;fill-rule:nonzero;fill:rgb(0%,0%,0%);fill-opacity:1;" d="M 94.453125 29.3125 C 89.445312 29.761719 83.703125 30.574219 82.972656 30.980469 C 82.566406 31.1875 81.953125 31.347656 81.628906 31.347656 C 80.734375 31.347656 76.824219 32.609375 76.375 33.019531 C 76.132812 33.222656 75.644531 33.382812 75.195312 33.382812 C 74.257812 33.382812 68.640625 35.785156 68.476562 36.273438 C 68.398438 36.476562 67.867188 36.640625 67.339844 36.640625 C 66.808594 36.640625 66.359375 36.804688 66.359375 37.007812 C 66.359375 37.210938 66.035156 37.496094 65.667969 37.617188 C 64.8125 37.945312 63.714844 38.554688 62.003906 39.777344 C 61.3125 40.304688 60.621094 40.710938 60.457031 40.710938 C 60.335938 40.710938 59.929688 40.957031 59.601562 41.199219 C 59.277344 41.484375 57.199219 43.195312 55.003906 44.988281 C 52.804688 46.777344 50.441406 49.019531 49.75 49.914062 C 49.019531 50.851562 47.917969 52.152344 47.308594 52.804688 C 46.695312 53.457031 46.046875 54.269531 45.800781 54.636719 C 43.96875 57.484375 41.851562 60.582031 41.324219 61.273438 C 40.996094 61.679688 40.710938 62.371094 40.710938 62.738281 C 40.710938 63.144531 40.550781 63.59375 40.304688 63.714844 C 40.101562 63.835938 39.613281 64.652344 39.246094 65.464844 C 38.921875 66.28125 38.433594 67.257812 38.230469 67.582031 C 37.820312 68.273438 37.78125 68.355469 37.089844 70.472656 C 36.84375 71.246094 36.640625 72.222656 36.640625 72.589844 C 36.640625 72.957031 36.476562 73.28125 36.234375 73.28125 C 36.03125 73.28125 35.746094 73.972656 35.582031 74.789062 C 35.460938 75.644531 34.972656 77.71875 34.523438 79.390625 C 33.179688 84.558594 32.976562 93.71875 33.019531 156.335938 C 33.019531 205.640625 33.097656 216.507812 33.546875 217.078125 C 34.035156 217.730469 35.09375 217.8125 45.394531 217.8125 C 55.695312 217.8125 56.753906 217.730469 57.242188 217.078125 C 57.691406 216.507812 57.8125 204.988281 57.8125 152.671875 C 57.851562 117.617188 58.015625 88.140625 58.21875 87.125 C 58.871094 83.703125 60.214844 78.859375 60.660156 78.414062 C 60.863281 78.207031 61.070312 77.679688 61.070312 77.273438 C 61.070312 76.863281 61.515625 75.804688 62.085938 74.910156 C 62.65625 74.015625 63.105469 73.121094 63.105469 72.957031 C 63.105469 72.753906 63.472656 72.183594 63.878906 71.695312 C 64.324219 71.207031 65.34375 69.78125 66.199219 68.558594 C 67.011719 67.339844 67.867188 66.359375 68.070312 66.359375 C 68.234375 66.359375 68.398438 66.15625 68.398438 65.871094 C 68.398438 65.261719 71.082031 62.738281 74.097656 60.5 C 75.316406 59.5625 76.582031 58.585938 76.863281 58.300781 C 77.148438 58.054688 77.679688 57.8125 78.003906 57.8125 C 78.332031 57.8125 78.574219 57.609375 78.574219 57.40625 C 78.574219 57.160156 78.859375 56.996094 79.1875 56.996094 C 79.511719 56.996094 79.796875 56.792969 79.796875 56.589844 C 79.796875 56.347656 80.164062 56.183594 80.652344 56.183594 C 81.140625 56.183594 82.078125 55.9375 82.769531 55.613281 C 87.246094 53.578125 89.648438 52.96875 95.753906 52.316406 C 102.515625 51.582031 103.816406 51.703125 103.816406 52.925781 C 103.816406 53.332031 102.636719 55.410156 101.171875 57.609375 C 99.703125 59.765625 98.320312 62.003906 98.078125 62.574219 C 97.871094 63.144531 97.34375 64.121094 96.894531 64.734375 C 96.449219 65.382812 96.082031 66.199219 96.082031 66.605469 C 96.082031 66.972656 95.835938 67.625 95.550781 67.949219 C 94.941406 68.683594 93.273438 73.484375 92.785156 75.929688 C 92.621094 76.824219 92.171875 78.65625 91.804688 80 C 90.625 84.113281 90.464844 92.703125 90.421875 155.804688 C 90.382812 210.484375 90.464844 216.589844 91.03125 217.160156 C 91.5625 217.730469 93.230469 217.8125 102.757812 217.8125 C 112.9375 217.8125 113.914062 217.769531 114.523438 217.078125 C 115.136719 216.386719 115.214844 210.808594 115.296875 150.921875 C 115.378906 99.296875 115.542969 85.414062 115.949219 85.007812 C 116.195312 84.761719 116.4375 84.03125 116.4375 83.460938 C 116.4375 82.890625 116.804688 81.425781 117.292969 80.203125 C 117.742188 78.980469 118.269531 77.515625 118.472656 76.945312 C 119.003906 75.277344 120.996094 71.652344 121.363281 71.652344 C 121.566406 71.652344 121.730469 71.367188 121.730469 71.042969 C 121.730469 70.71875 121.933594 70.433594 122.136719 70.433594 C 122.382812 70.433594 122.542969 70.269531 122.542969 70.027344 C 122.542969 69.617188 123.398438 68.4375 124.90625 66.890625 C 125.394531 66.359375 125.800781 65.75 125.800781 65.546875 C 125.800781 65.382812 126.574219 64.527344 127.511719 63.753906 C 129.710938 61.882812 131.011719 61.84375 132.804688 63.632812 C 134.675781 65.546875 135.980469 67.054688 135.980469 67.339844 C 135.980469 67.460938 136.304688 67.910156 136.710938 68.316406 C 137.8125 69.496094 138.828125 70.839844 138.828125 71.082031 C 138.828125 71.207031 139.277344 71.898438 139.847656 72.632812 C 140.417969 73.363281 140.988281 74.542969 141.109375 75.238281 C 141.273438 75.96875 141.476562 76.539062 141.640625 76.539062 C 142.25 76.539062 143.472656 80.734375 144.570312 86.515625 C 145.261719 90.382812 145.304688 93.761719 145.34375 153.363281 C 145.34375 212.195312 145.382812 216.222656 146.035156 216.996094 C 146.726562 217.769531 147.214844 217.8125 157.761719 217.8125 C 168.792969 217.8125 168.835938 217.8125 169.691406 216.875 L 170.585938 215.9375 L 170.585938 156.335938 C 170.585938 96.8125 170.503906 92.621094 169.121094 84.03125 C 168.792969 82.035156 168.550781 79.675781 168.550781 78.902344 C 168.550781 78.085938 168.386719 77.3125 168.183594 77.191406 C 167.980469 77.070312 167.492188 75.683594 167.125 74.097656 C 166.757812 72.550781 166.269531 71.246094 166.066406 71.246094 C 165.863281 71.246094 165.699219 70.878906 165.699219 70.433594 C 165.699219 69.332031 164.476562 66.359375 164.03125 66.359375 C 163.828125 66.359375 163.664062 66.035156 163.625 65.628906 C 163.625 65.261719 162.972656 63.835938 162.238281 62.492188 C 161.464844 61.148438 160.652344 59.683594 160.449219 59.238281 C 160.246094 58.789062 159.714844 58.054688 159.226562 57.648438 C 158.777344 57.199219 158.371094 56.710938 158.371094 56.507812 C 158.371094 56.304688 157.921875 55.53125 157.355469 54.800781 C 155.03125 51.746094 156.375 51.339844 165.496094 52.476562 C 171.765625 53.210938 176.324219 54.433594 177.585938 55.695312 C 177.871094 55.980469 178.484375 56.183594 179.011719 56.183594 C 179.867188 56.183594 181.414062 56.835938 181.984375 57.40625 C 182.105469 57.527344 183.003906 58.136719 184.019531 58.789062 C 185.039062 59.441406 186.015625 60.214844 186.179688 60.539062 C 186.339844 60.824219 186.707031 61.070312 186.953125 61.070312 C 187.644531 61.070312 191.105469 64.285156 192.367188 66.117188 C 192.8125 66.769531 193.546875 67.703125 193.996094 68.195312 C 195.542969 69.984375 196.03125 70.675781 196.804688 72.183594 C 197.25 72.996094 197.699219 73.691406 197.863281 73.691406 C 198.027344 73.691406 198.308594 74.339844 198.433594 75.113281 C 198.59375 75.886719 198.839844 76.539062 199.042969 76.539062 C 199.207031 76.539062 199.574219 77.3125 199.859375 78.25 C 200.140625 79.226562 200.632812 80.734375 200.917969 81.628906 C 202.464844 86.1875 202.464844 86.1875 202.625 152.0625 C 202.75 210.523438 202.828125 216.425781 203.441406 217.078125 C 204.050781 217.730469 205.070312 217.8125 215.246094 217.8125 C 225.871094 217.8125 226.402344 217.769531 227.175781 216.996094 C 227.988281 216.183594 227.988281 215.9375 227.828125 154.382812 C 227.746094 117.78125 227.5 91.195312 227.296875 89.160156 C 226.566406 83.011719 225.871094 78.371094 225.507812 77.558594 C 225.34375 77.109375 224.855469 75.644531 224.488281 74.300781 C 224.121094 72.957031 223.675781 71.652344 223.511719 71.449219 C 223.347656 71.207031 223.105469 70.472656 222.941406 69.820312 C 222.535156 68.152344 221.761719 66.359375 221.394531 66.359375 C 221.191406 66.359375 221.070312 66.078125 221.070312 65.710938 C 221.070312 65.382812 220.5 64.039062 219.765625 62.777344 C 219.074219 61.515625 218.21875 59.96875 217.933594 59.398438 C 217.648438 58.828125 217.039062 58.015625 216.589844 57.609375 C 216.140625 57.199219 215.777344 56.710938 215.777344 56.507812 C 215.777344 56.019531 213.902344 53.578125 212.113281 51.703125 C 208.976562 48.40625 206.371094 45.761719 205.476562 44.988281 C 204.214844 43.804688 199.980469 40.710938 199.695312 40.710938 C 199.53125 40.710938 198.839844 40.304688 198.148438 39.777344 C 196.195312 38.433594 195.378906 37.945312 193.585938 37.007812 C 192.691406 36.558594 191.675781 36.03125 191.347656 35.867188 C 190.085938 35.136719 185.730469 33.382812 185.160156 33.382812 C 184.835938 33.382812 184.019531 33.140625 183.367188 32.8125 C 182.71875 32.488281 181.292969 32 180.152344 31.714844 C 179.054688 31.472656 177.832031 31.144531 177.507812 31.023438 C 176.246094 30.535156 170.179688 29.71875 164.683594 29.273438 C 160.449219 28.945312 157.515625 28.945312 153.28125 29.273438 C 146.523438 29.84375 140.660156 30.617188 140.214844 31.023438 C 140.050781 31.226562 139.316406 31.347656 138.585938 31.347656 C 137.851562 31.347656 137.121094 31.511719 136.996094 31.753906 C 136.875 31.960938 136.425781 32.164062 136.0625 32.164062 C 135.695312 32.164062 134.839844 32.449219 134.1875 32.773438 C 132.683594 33.585938 127.550781 33.585938 125.964844 32.8125 C 120.589844 30.128906 104.996094 28.375 94.453125 29.3125 Z M 94.453125 29.3125 "/>
</g>
</svg>
